<svg xmlns="http://www.w3.org/2000/svg" xmlns:xlink="http://www.w3.org/1999/xlink" width="248" height="44" viewBox="0 0 248 44">
    <defs>
        <path id="a" d="M.105.139h175.007v41.4H.105z"/>
    </defs>
    <g fill="none" fill-rule="evenodd">
        <path fill="#FFF" d="M58.359 17.49l1.596-1.916c1.006 1.143 2.298 1.64 3.362 1.64 1.292 0 1.938-.572 1.938-1.382 0-.957-.72-1.307-2.356-1.842-2.032-.699-4.065-1.62-4.065-4.087 0-2.098 1.898-3.7 4.33-3.736 1.674-.019 3.232.589 4.543 1.657l-1.54 1.95c-1.121-.901-2.108-1.289-2.944-1.289-.931 0-1.616.48-1.616 1.308-.02.811.721 1.16 2.262 1.75 2.337.884 4.18 1.473 4.18 3.994 0 2.855-2.565 4.014-4.77 4.014a6.856 6.856 0 0 1-4.92-2.061M70.455 16.57v-4.162h-1.102V10.42h1.102V7.473l2.471-.257v3.204h2.527v1.988h-2.527v3.83c0 .773.246 1.14.817 1.14.302 0 .76-.11 1.177-.313L75.567 19c-.608.313-1.216.551-2.47.551-1.596 0-2.642-.956-2.642-2.982M83.808 14.948c0-1.435-.986-2.521-2.337-2.521-1.329 0-2.394.974-2.394 2.521 0 1.456.989 2.449 2.375 2.449 1.293 0 2.356-.977 2.356-2.449zm2.375-4.528v8.984h-2.356v-1.086h-.055c-.63.792-1.58 1.233-2.776 1.233-2.563 0-4.427-1.841-4.427-4.62 0-2.726 1.881-4.659 4.372-4.659 1.102 0 2.052.386 2.715 1.16h.058V10.42h2.47zM89.046 16.57v-4.162h-1.102V10.42h1.102V7.473l2.471-.257v3.204h2.527v1.988h-2.527v3.83c0 .773.246 1.14.818 1.14.302 0 .76-.11 1.177-.313L94.158 19c-.608.313-1.216.551-2.47.551-1.596 0-2.642-.956-2.642-2.982M96.187 19.404h2.49V10.42h-2.49v8.984zm-.284-11.728c0-.81.702-1.474 1.538-1.474.854 0 1.558.664 1.558 1.474 0 .81-.704 1.473-1.558 1.473-.836 0-1.538-.664-1.538-1.473zM100.725 18.243l1.215-1.674c.762.7 1.558 1.05 2.566 1.05.721 0 1.14-.295 1.14-.738 0-.423-.475-.625-1.692-.994-1.52-.497-2.849-1.196-2.849-2.927 0-1.62 1.443-2.688 3.343-2.688 1.293 0 2.339.332 3.383 1.124l-1.196 1.767c-.723-.664-1.54-.958-2.224-.958-.4 0-.913.203-.913.682 0 .367.494.626 1.406.956 2.015.72 3.193 1.142 3.193 2.91 0 1.602-1.178 2.798-3.61 2.798-1.481 0-2.735-.46-3.762-1.308M110.428 16.57v-4.162h-1.1V10.42h1.1V7.473l2.471-.257v3.204h2.528v1.988h-2.528v3.83c0 .773.247 1.14.818 1.14.304 0 .76-.11 1.177-.313L115.54 19c-.608.313-1.215.551-2.47.551-1.596 0-2.642-.956-2.642-2.982M117.57 19.404h2.488V10.42h-2.489v8.984zm-.285-11.728c0-.81.702-1.474 1.538-1.474.854 0 1.558.664 1.558 1.474 0 .81-.704 1.473-1.558 1.473-.836 0-1.538-.664-1.538-1.473zM122.107 18.243l1.217-1.674c.76.7 1.558 1.05 2.566 1.05.721 0 1.138-.295 1.138-.738 0-.423-.473-.625-1.69-.994-1.52-.497-2.85-1.196-2.85-2.927 0-1.62 1.444-2.688 3.344-2.688 1.292 0 2.339.332 3.381 1.124l-1.196 1.767c-.721-.664-1.539-.958-2.223-.958-.399 0-.912.203-.912.682 0 .367.494.626 1.408.956 2.012.72 3.19 1.142 3.19 2.91 0 1.602-1.178 2.798-3.611 2.798-1.481 0-2.735-.46-3.762-1.308M135.345 15.832l-1.29 1.418v2.154h-2.491V5.854h2.49v8.192h.02l3.323-3.626h2.908l-3.268 3.57 3.324 5.414h-2.773l-2.203-3.572h-.04M146.414 18.243l1.216-1.674c.76.7 1.558 1.05 2.565 1.05.722 0 1.14-.295 1.14-.738 0-.423-.474-.625-1.69-.994-1.523-.497-2.852-1.196-2.852-2.927 0-1.62 1.445-2.688 3.345-2.688 1.292 0 2.338.332 3.381 1.124l-1.196 1.767c-.722-.664-1.539-.958-2.224-.958-.398 0-.911.203-.911.682 0 .367.494.626 1.407.956 2.014.72 3.191 1.142 3.191 2.91 0 1.602-1.177 2.798-3.61 2.798-1.48 0-2.737-.46-3.762-1.308M157.883 13.955h4.085c-.246-.94-.911-1.566-1.994-1.566-1.008 0-1.806.533-2.09 1.566zm6.5 1.73h-6.517c.302 1.069 1.175 1.73 2.373 1.73.989.02 1.71-.404 2.224-1.011l1.615 1.453c-.798.977-2.146 1.694-4.01 1.694-2.715 0-4.768-1.841-4.768-4.657 0-2.726 1.956-4.622 4.599-4.622 2.716 0 4.539 1.914 4.539 4.548 0 .294 0 .717-.056.864zM175.491 14.065v5.339h-2.487v-4.732c0-1.712-.628-2.245-1.788-2.245-1.254 0-2.108.846-2.108 2.448v4.529h-2.49V10.42h2.49v1.159h.038c.76-.865 1.824-1.307 2.964-1.307 1.995 0 3.381 1.03 3.381 3.793M178.298 16.57v-4.162h-1.102V10.42h1.102V7.473l2.47-.257v3.204h2.527v1.988h-2.527v3.83c0 .773.248 1.14.817 1.14.304 0 .76-.11 1.177-.313L183.41 19c-.61.313-1.217.551-2.47.551-1.598 0-2.642-.956-2.642-2.982M190.834 10.29v2.616c-.248-.02-.513-.02-.648-.02-1.537 0-2.373 1.013-2.373 2.338v4.18h-2.49V10.42h2.49v1.325h.02c.701-.958 1.707-1.473 2.81-1.473.076 0 .153 0 .191.019M199.153 14.948c0-1.435-.987-2.521-2.337-2.521-1.33 0-2.394.974-2.394 2.521 0 1.456.988 2.449 2.376 2.449 1.291 0 2.355-.977 2.355-2.449zm2.377-4.528v8.984h-2.358v-1.086h-.056c-.629.792-1.579 1.233-2.775 1.233-2.566 0-4.427-1.841-4.427-4.62 0-2.726 1.88-4.659 4.371-4.659 1.102 0 2.05.386 2.716 1.16h.057V10.42h2.472zM204.258 19.404h2.49V5.854h-2.49zM216.738 14.948c0-1.547-1.044-2.521-2.375-2.521-1.425 0-2.431 1.086-2.431 2.521 0 1.472 1.083 2.449 2.43 2.449 1.407 0 2.376-.993 2.376-2.449zm2.527-.017c0 2.779-1.863 4.62-4.446 4.62-1.235 0-2.185-.441-2.831-1.233h-.056v1.086h-2.377V5.854h2.49v5.578h.056c.685-.774 1.654-1.16 2.794-1.16 2.49 0 4.37 1.933 4.37 4.66zM229.54 10.42l-4.999 12.63h-2.544l1.634-4.198-3.686-8.432h2.584l2.28 5.56h.019l2.127-5.56h2.585M236.81 10.29v2.616c-.248-.02-.513-.02-.646-.02-1.539 0-2.375 1.013-2.375 2.338v4.18H231.3V10.42h2.489v1.325h.02c.701-.958 1.71-1.473 2.81-1.473.076 0 .153 0 .191.019M242.163 7.658c0 .386.304.68.704.68a.712.712 0 0 0 .723-.699c0-.367-.325-.68-.723-.68-.4 0-.704.33-.704.699zm-1.33.018c0-1.049.857-1.934 2.034-1.934 1.16 0 2.071.81 2.071 1.934 0 1.05-.836 1.914-2.07 1.914-1.103 0-2.036-.809-2.036-1.914zm4.294 7.272c0-1.435-.987-2.521-2.335-2.521-1.33 0-2.396.974-2.396 2.521 0 1.456.988 2.449 2.377 2.449 1.29 0 2.354-.977 2.354-2.449zm2.377-4.528v8.984h-2.358v-1.086h-.056c-.627.792-1.577 1.233-2.775 1.233-2.565 0-4.427-1.841-4.427-4.62 0-2.726 1.88-4.659 4.371-4.659 1.102 0 2.052.386 2.718 1.16h.056V10.42h2.471zM58.729 37.375l.798-.91c.727.867 1.822 1.295 2.803 1.295 1.238 0 2.064-.565 2.064-1.502 0-1.104-.911-1.393-2.263-1.889-1.495-.538-3.016-1.16-3.016-2.855 0-1.462 1.366-2.579 3.088-2.592 1.123 0 2.233.399 3.2 1.144l-.754.939c-.796-.648-1.694-.967-2.446-.967-.94 0-1.794.496-1.794 1.422-.014.936.898 1.268 2.148 1.75 1.708.634 3.132 1.09 3.132 2.924 0 1.806-1.637 2.757-3.373 2.757a4.946 4.946 0 0 1-3.587-1.516M67.809 36.81v-3.752h-.882v-.965h.882v-2.288l1.152-.125v2.413h2.308v.965H68.96v3.586c0 .8.201 1.2.854 1.2.413 0 .84-.166 1.169-.346l.313.98c-.385.206-.868.413-1.68.413-1.239 0-1.808-.73-1.808-2.082M78.17 35.5c0-1.38-.983-2.454-2.319-2.454-1.31 0-2.349.964-2.349 2.454 0 1.35.926 2.37 2.334 2.37 1.254 0 2.335-.95 2.335-2.37zm1.111-3.407v6.715h-1.11v-1.061h-.016c-.554.717-1.408 1.144-2.419 1.144-1.92 0-3.4-1.337-3.4-3.391 0-1.986 1.423-3.49 3.386-3.49.954 0 1.808.386 2.391 1.09h.014v-1.007h1.154zM81.77 36.81v-3.752h-.882v-.965h.882v-2.288l1.153-.125v2.413h2.305v.965h-2.305v3.586c0 .8.199 1.2.854 1.2.412 0 .84-.166 1.166-.346l.313.98c-.384.206-.868.413-1.678.413-1.239 0-1.808-.73-1.808-2.082M87.022 38.808h1.152v-6.715h-1.152v6.715zm-.243-8.742c0-.427.356-.786.826-.786.454 0 .824.36.824.786 0 .441-.37.786-.824.786-.47 0-.826-.345-.826-.786zM90.096 37.926l.597-.84c.541.482 1.139.8 2.12.8.826 0 1.31-.415 1.31-.897 0-.58-.641-.772-1.65-1.104-1.125-.385-2.079-.84-2.079-2.068 0-1.034.968-1.807 2.292-1.807a3.68 3.68 0 0 1 2.377.828l-.6.883c-.61-.511-1.25-.69-1.835-.69-.526 0-1.067.304-1.067.786 0 .523.57.772 1.31 1.048 1.465.552 2.433.787 2.419 2.11 0 1.048-.81 1.916-2.477 1.916-1.139 0-2.035-.37-2.717-.965M97.338 36.81v-3.752h-.882v-.965h.882v-2.288l1.153-.125v2.413h2.305v.965h-2.305v3.586c0 .8.199 1.2.854 1.2.412 0 .84-.166 1.167-.346l.312.98c-.384.206-.868.413-1.678.413-1.238 0-1.808-.73-1.808-2.082M102.59 38.808h1.153v-6.715h-1.153v6.715zm-.241-8.742c0-.427.354-.786.824-.786.456 0 .826.36.826.786 0 .441-.37.786-.826.786-.47 0-.824-.345-.824-.786zM105.835 35.457c0-2.025 1.437-3.447 3.472-3.447 1.039 0 2.108.415 2.79 1.2l-.797.677c-.427-.511-1.11-.841-1.935-.841-1.396 0-2.362.991-2.362 2.411 0 1.435.966 2.413 2.362 2.413.812 0 1.536-.343 1.964-.798l.797.688c-.584.635-1.623 1.13-2.861 1.13-1.993 0-3.43-1.392-3.43-3.433M113.306 37.926l.598-.84c.541.482 1.138.8 2.12.8.826 0 1.31-.415 1.31-.897 0-.58-.641-.772-1.65-1.104-1.125-.385-2.079-.84-2.079-2.068 0-1.034.968-1.807 2.291-1.807a3.68 3.68 0 0 1 2.377.828l-.599.883c-.611-.511-1.25-.69-1.835-.69-.526 0-1.067.304-1.067.786 0 .523.569.772 1.31 1.048 1.465.552 2.432.787 2.418 2.11 0 1.048-.81 1.916-2.476 1.916-1.139 0-2.035-.37-2.718-.965M132.902 29.018v9.79h-1.266l-5.664-7.722h-.03v7.722h-1.236v-9.79h1.222l5.708 7.805h.03v-7.805h1.236M141.044 35.457c0-1.433-1.055-2.411-2.391-2.411-1.451 0-2.42 1.074-2.42 2.411 0 1.339.98 2.413 2.42 2.413 1.336 0 2.39-.991 2.39-2.413zm-5.978 0c0-1.929 1.423-3.447 3.587-3.447 2.035 0 3.558 1.406 3.558 3.447 0 2.041-1.523 3.434-3.558 3.434-2.164 0-3.587-1.503-3.587-3.434zM147.915 32.025v1.24a6.324 6.324 0 0 0-.455-.028c-1.308 0-2.106.98-2.106 2.33v3.241H144.2v-6.715h1.154v1.186h.014c.512-.8 1.324-1.269 2.262-1.269.115 0 .213 0 .285.015M158.916 32.093l-2.405 6.715h-1.081l-1.565-4.894h-.014l-1.58 4.894h-1.054l-2.405-6.715h1.167l1.766 5.02h.026l1.582-5.02h.996l1.608 5.02h.026l1.766-5.02h1.167M165.603 35.5c0-1.38-.98-2.454-2.32-2.454-1.308 0-2.347.964-2.347 2.454 0 1.35.926 2.37 2.334 2.37 1.252 0 2.333-.95 2.333-2.37zm1.11-3.407v6.715h-1.11v-1.061h-.012c-.556.717-1.41 1.144-2.42 1.144-1.922 0-3.403-1.337-3.403-3.391 0-1.986 1.425-3.49 3.388-3.49.954 0 1.808.386 2.391 1.09h.014v-1.007h1.153z"/>
        <g>
            <mask id="b" fill="#fff">
                <use xlink:href="#a"/>
            </mask>
            <path fill="#FFF" d="M175.112 32.093l-3.915 9.446h-1.223l1.239-3.007-2.931-6.44h1.238l2.248 5.117h.028l2.09-5.116h1.226M24.845 25.813L44.064 15.06C41.044 6.39 32.6.139 22.633.139 10.133.139 0 9.958 0 22.069c0 1.669.21 3.287.573 4.849l21.29-11.892 2.982 10.787" mask="url(#b)"/>
        </g>
        <path fill="#FFF" d="M23.433 29.114L20.45 18.326 1.202 29.077C4.222 37.75 12.665 44 22.632 44c12.5 0 22.633-9.819 22.633-21.93 0-1.67-.21-3.287-.573-4.847l-21.26 11.891"/>
    </g>
</svg>
